<svg width="50" height="50" viewBox="0 0 50 50" fill="none" xmlns="http://www.w3.org/2000/svg">
<path d="M46.3077 0H3.69449C1.65391 0 0 1.60335 0 3.58226V46.4166C0 48.3955 1.65446 50 3.69449 50H46.3077C48.3483 50 50 48.3944 50 46.4166V3.58226C50 1.60391 48.3483 0 46.3077 0ZM15.1585 41.8532H7.60397V19.2791H15.1585V41.8532ZM11.3818 16.1952H11.3312C8.79788 16.1952 7.15563 14.4624 7.15563 12.2935C7.15563 10.0807 8.84621 8.39509 11.4296 8.39509C14.0135 8.39509 15.603 10.0801 15.653 12.2935C15.653 14.4629 14.014 16.1952 11.3818 16.1952ZM42.391 41.8532H34.8382V29.7759C34.8382 26.7403 33.7443 24.6703 31.0131 24.6703C28.9231 24.6703 27.6831 26.067 27.1386 27.4153C26.9364 27.8975 26.887 28.5709 26.887 29.2442V41.8532H19.3363C19.3363 41.8532 19.4352 21.3958 19.3363 19.2785H26.8881V22.4791C27.8909 20.9413 29.682 18.7474 33.6931 18.7474C38.6638 18.7474 42.391 21.9719 42.391 28.9098V41.8532ZM26.8392 22.5508C26.852 22.5297 26.8709 22.5036 26.8881 22.4791V22.5508H26.8392Z" fill="white"/>
</svg>
