<svg width="52" height="36" viewBox="0 0 52 36" fill="none" xmlns="http://www.w3.org/2000/svg">
<path d="M46.1084 16.0048C49.0291 15.7627 51.0097 14.4285 51.7724 12.6181C50.7185 13.2684 47.4488 13.9773 45.6427 13.302C45.5589 12.9004 45.4641 12.5012 45.3584 12.1048C43.9822 7.02669 39.2704 2.93562 34.3333 3.42973C34.7315 3.26785 35.1346 3.11836 35.542 2.98149C36.0851 2.78582 39.2739 2.26443 38.7718 1.13337C38.3488 0.138768 34.4529 1.88528 33.7197 2.11346C34.688 1.74767 36.2891 1.11828 36.4607 0C34.9775 0.204379 33.5209 0.909254 32.396 1.93405C32.8022 1.49452 33.1101 0.959188 33.176 0.38263C29.2194 2.92285 26.9083 8.04394 25.038 13.0112C23.5693 11.5811 22.2676 10.4547 21.0999 9.82935C17.8239 8.06368 13.9071 6.22194 7.7584 3.92791C7.56947 5.97228 8.76431 8.69075 12.2073 10.4982C11.4614 10.3978 10.0972 10.6219 9.0064 10.8843C9.45071 13.2266 10.9015 15.156 14.8298 16.089C13.0347 16.2081 12.1068 16.6186 11.2661 17.5034C12.0836 19.1321 14.0787 21.0493 17.6679 20.6556C13.6777 22.3841 16.0408 25.5851 19.288 25.1073C13.7471 30.8566 5.01453 30.4345 0 25.6257C13.093 43.5554 41.5544 36.2302 45.7958 18.9596C48.9736 18.9875 50.8416 17.8541 52 16.6046C50.169 16.9164 47.5153 16.5936 46.1084 16.0048Z" fill="white"/>
</svg>
