<svg width="54" height="54" viewBox="0 0 54 54" fill="none" xmlns="http://www.w3.org/2000/svg">
<path d="M51.3 26.5934C51.3 39.6684 40.6194 50.2675 27.4417 50.2675C23.4106 50.274 19.4432 49.2607 15.909 47.3218L2.70001 51.5192L7.00651 38.8174C4.76197 35.1355 3.57727 30.9055 3.58291 26.5934C3.58291 13.5184 14.2647 2.91925 27.4423 2.91925C40.6204 2.91925 51.3 13.5184 51.3 26.5934ZM27.4417 6.68953C16.3804 6.68953 7.38289 15.6184 7.38289 26.5934C7.38289 30.949 8.80255 34.9823 11.2039 38.2633L8.69779 45.6548L16.4063 43.2049C19.6837 45.3582 23.5208 46.5029 27.4423 46.4972C38.502 46.4972 47.5011 37.5694 47.5011 26.5939C47.5006 15.619 38.5025 6.68953 27.4417 6.68953ZM39.4897 32.0458C39.3422 31.8044 38.9529 31.6586 38.3686 31.3686C37.7833 31.0786 34.9072 29.6741 34.3726 29.4818C33.8364 29.288 33.4454 29.1908 33.0561 29.7713C32.6668 30.3523 31.5457 31.6586 31.2039 32.0458C30.8626 32.434 30.5219 32.4826 29.9365 32.1921C29.3523 31.9021 27.4682 31.2887 25.2342 29.3117C23.496 27.7744 22.322 25.8752 21.9807 25.2941C21.64 24.7136 21.9451 24.3999 22.2372 24.111C22.5007 23.8507 22.8226 23.4333 23.1147 23.0947C23.4079 22.7556 23.5051 22.5142 23.699 22.1265C23.895 21.7393 23.7973 21.4007 23.6504 21.1097C23.5046 20.8197 22.3339 17.9642 21.8468 16.8026C21.3597 15.6411 20.8732 15.8344 20.5314 15.8344C20.1906 15.8344 19.8002 15.7858 19.4103 15.7858C19.0204 15.7858 18.3865 15.9311 17.8503 16.5116C17.3146 17.0926 15.8042 18.4966 15.8042 21.3516C15.8042 24.2071 17.8989 26.966 18.1921 27.3532C18.4842 27.7398 22.2367 33.79 28.1821 36.1136C34.128 38.4356 34.128 37.6607 35.2004 37.5635C36.2718 37.4668 38.6597 36.16 39.1489 34.8057C39.6349 33.4492 39.6349 32.2877 39.4897 32.0458Z" fill="white"/>
</svg>
